ffmpeg version 4.2.7-0ubuntu0.1 Copyright (c) 2000-2022 the FFmpeg developers
  built with gcc 9 (Ubuntu 9.4.0-1ubuntu1~20.04.1)
  configuration: --prefix=/usr --extra-version=0ubuntu0.1 --toolchain=hardened --libdir=/usr/lib/x86_64-linux-gnu --incdir=/usr/include/x86_64-linux-gnu --arch=amd64 --enable-gpl --disable-stripping --enable-avresample --disable-filter=resample --enable-avisynth --enable-gnutls --enable-ladspa --enable-libaom --enable-libass --enable-libbluray --enable-libbs2b --enable-libcaca --enable-libcdio --enable-libcodec2 --enable-libflite --enable-libfontconfig --enable-libfreetype --enable-libfribidi --enable-libgme --enable-libgsm --enable-libjack --enable-libmp3lame --enable-libmysofa --enable-libopenjpeg --enable-libopenmpt --enable-libopus --enable-libpulse --enable-librsvg --enable-librubberband --enable-libshine --enable-libsnappy --enable-libsoxr --enable-libspeex --enable-libssh --enable-libtheora --enable-libtwolame --enable-libvidstab --enable-libvorbis --enable-libvpx --enable-libwavpack --enable-libwebp --enable-libx265 --enable-libxml2 --enable-libxvid --enable-libzmq --enable-libzvbi --enable-lv2 --enable-omx --enable-openal --enable-opencl --enable-opengl --enable-sdl2 --enable-libdc1394 --enable-libdrm --enable-libiec61883 --enable-nvenc --enable-chromaprint --enable-frei0r --enable-libx264 --enable-shared
  libavutil      56. 31.100 / 56. 31.100
  libavcodec     58. 54.100 / 58. 54.100
  libavformat    58. 29.100 / 58. 29.100
  libavdevice    58.  8.100 / 58.  8.100
  libavfilter     7. 57.100 /  7. 57.100
  libavresample   4.  0.  0 /  4.  0.  0
  libswscale      5.  5.100 /  5.  5.100
  libswresample   3.  5.100 /  3.  5.100
  libpostproc    55.  5.100 / 55.  5.100
[rawvideo @ 0x56527ec2d780] Estimating duration from bitrate, this may be inaccurate
Input #0, rawvideo, from 'output.yuv':
  Duration: 00:00:04.80, start: 0.000000, bitrate: 2488320 kb/s
    Stream #0:0: Video: rawvideo (I420 / 0x30323449), yuv420p, 3840x2160, 2488320 kb/s, 25 tbr, 25 tbn, 25 tbc
Stream mapping:
  Stream #0:0 -> #0:0 (rawvideo (native) -> h264 (libx264))
Press [q] to stop, [?] for help
[libx264 @ 0x56527ec32d80] using cpu capabilities: MMX2 SSE2Fast SSSE3 SSE4.2 AVX
[libx264 @ 0x56527ec32d80] profile High, level 5.1
Output #0, h264, to 'output_h264.264':
  Metadata:
    encoder         : Lavf58.29.100
    Stream #0:0: Video: h264 (libx264), yuv420p, 3840x2160, q=-1--1, 30 fps, 30 tbn, 30 tbc
    Metadata:
      encoder         : Lavc58.54.100 libx264
    Side data:
      cpb: bitrate max/min/avg: 0/0/0 buffer size: 0 vbv_delay: -1
frame=   23 fps=0.0 q=0.0 size=       0kB time=00:00:00.00 bitrate=N/A speed=   0x    frame=   47 fps= 11 q=0.0 size=       0kB time=00:00:00.00 bitrate=N/A speed=   0x    frame=   48 fps=4.1 q=0.0 size=       0kB time=00:00:00.00 bitrate=N/A speed=   0x    frame=   56 fps=4.5 q=0.0 size=       0kB time=00:00:00.00 bitrate=N/A speed=   0x    frame=   62 fps=4.8 q=29.0 size=     512kB time=00:00:00.13 bitrate=31457.4kbits/s speed=0.0102x    frame=   63 fps=4.6 q=29.0 size=     512kB time=00:00:00.16 bitrate=25165.8kbits/s speed=0.0121x    frame=   69 fps=4.8 q=29.0 size=     768kB time=00:00:00.36 bitrate=17158.5kbits/s speed=0.0257x    frame=   75 fps=4.9 q=29.0 size=    1024kB time=00:00:00.56 bitrate=14803.4kbits/s speed=0.0371x    frame=   76 fps=3.6 q=29.0 size=    1024kB time=00:00:00.60 bitrate=13981.0kbits/s speed=0.0284x    frame=   84 fps=3.9 q=29.0 size=    1536kB time=00:00:00.86 bitrate=14518.7kbits/s speed=0.0401x    frame=   89 fps=4.0 q=29.0 size=    1536kB time=00:00:01.03 bitrate=12177.0kbits/s speed=0.0467x    frame=   91 fps=4.0 q=29.0 size=    1792kB time=00:00:01.10 bitrate=13345.5kbits/s speed=0.0485x    frame=   95 fps=4.1 q=29.0 size=    2048kB time=00:00:01.23 bitrate=13603.2kbits/s speed=0.0532x    frame=  101 fps=4.3 q=29.0 size=    2048kB time=00:00:01.43 bitrate=11705.0kbits/s speed=0.0603x    frame=  107 fps=4.3 q=29.0 size=    2560kB time=00:00:01.63 bitrate=12839.7kbits/s speed=0.0656x    frame=  112 fps=4.4 q=29.0 size=    2560kB time=00:00:01.80 bitrate=11650.8kbits/s speed=0.0707x    frame=  116 fps=4.5 q=29.0 size=    2816kB time=00:00:01.93 bitrate=11932.1kbits/s speed=0.0742x    frame=  120 fps=2.1 q=-1.0 Lsize=    5914kB time=00:00:03.93 bitrate=12316.5kbits/s speed=0.068x    
video:5914kB audio:0kB subtitle:0kB other streams:0kB global headers:0kB muxing overhead: 0.000000%
[libx264 @ 0x56527ec32d80] frame I:2     Avg QP:22.14  size:392982
[libx264 @ 0x56527ec32d80] frame P:30    Avg QP:23.68  size: 99487
[libx264 @ 0x56527ec32d80] frame B:88    Avg QP:25.23  size: 25966
[libx264 @ 0x56527ec32d80] consecutive B-frames:  1.7%  1.7%  0.0% 96.7%
[libx264 @ 0x56527ec32d80] mb I  I16..4: 27.0% 65.7%  7.3%
[libx264 @ 0x56527ec32d80] mb P  I16..4:  1.6%  2.2%  0.2%  P16..4: 41.9%  8.6%  7.4%  0.0%  0.0%    skip:38.0%
[libx264 @ 0x56527ec32d80] mb B  I16..4:  0.1%  0.1%  0.0%  B16..8: 32.7%  1.5%  0.4%  direct: 1.5%  skip:63.7%  L0:38.3% L1:56.9% BI: 4.8%
[libx264 @ 0x56527ec32d80] 8x8 transform intra:61.0% inter:88.8%
[libx264 @ 0x56527ec32d80] coded y,uvDC,uvAC intra: 44.9% 80.6% 42.4% inter: 7.0% 25.1% 1.4%
[libx264 @ 0x56527ec32d80] i16 v,h,dc,p: 21% 42%  3% 34%
[libx264 @ 0x56527ec32d80] i8 v,h,dc,ddl,ddr,vr,hd,vl,hu: 23% 19% 22%  5%  5%  6%  6%  9%  6%
[libx264 @ 0x56527ec32d80] i4 v,h,dc,ddl,ddr,vr,hd,vl,hu: 28% 17%  8%  6%  9% 11%  8%  9%  5%
[libx264 @ 0x56527ec32d80] i8c dc,h,v,p: 45% 26% 21%  8%
[libx264 @ 0x56527ec32d80] Weighted P-Frames: Y:0.0% UV:0.0%
[libx264 @ 0x56527ec32d80] ref P L0: 58.4%  9.1% 23.1%  9.5%
[libx264 @ 0x56527ec32d80] ref B L0: 83.7% 13.2%  3.1%
[libx264 @ 0x56527ec32d80] ref B L1: 92.5%  7.5%
[libx264 @ 0x56527ec32d80] kb/s:12111.25
